<svg id="svg" version="1.1" xmlns="http://www.w3.org/2000/svg" xmlns:xlink="http://www.w3.org/1999/xlink" width="400" height="400"><g id="svgg"><path id="path0" d="M66.874 31.676 C 64.911 32.628,62.682 34.686,63.021 35.234 C 63.145 35.435,63.046 35.600,62.800 35.600 C 62.554 35.600,62.464 35.780,62.600 36.000 C 62.736 36.220,62.646 36.400,62.400 36.400 C 62.154 36.400,62.064 36.580,62.200 36.800 C 62.336 37.020,62.166 37.200,61.823 37.200 C 61.258 37.200,61.198 52.131,61.201 193.880 C 61.204 352.285,61.208 352.800,62.498 352.800 C 62.664 352.800,62.800 353.083,62.800 353.429 C 62.800 353.774,63.070 354.327,63.400 354.657 C 63.730 354.987,64.001 355.109,64.003 354.929 C 64.004 354.748,64.319 355.050,64.703 355.600 C 65.293 356.446,65.759 356.616,67.728 356.701 C 69.009 356.757,70.392 356.982,70.802 357.201 C 71.980 357.832,250.422 357.719,251.200 357.087 C 251.725 356.661,251.800 352.028,251.800 319.800 L 251.800 283.000 288.156 282.898 C 314.687 282.823,324.660 282.918,325.056 283.247 C 325.477 283.595,325.600 283.551,325.600 283.049 C 325.600 282.455,322.472 282.400,288.714 282.400 C 248.916 282.400,250.780 282.507,254.500 280.435 C 255.957 279.624,257.421 278.792,260.100 277.253 C 268.024 272.702,274.945 268.800,275.093 268.800 C 275.194 268.800,275.754 268.467,276.338 268.061 C 276.922 267.655,278.390 266.781,279.600 266.120 C 280.810 265.459,282.475 264.531,283.300 264.059 C 284.125 263.587,285.430 262.840,286.200 262.400 C 286.970 261.960,288.185 261.265,288.900 260.855 C 293.148 258.420,307.286 250.367,308.800 249.520 C 309.790 248.966,311.553 247.947,312.718 247.256 C 313.882 246.565,314.934 246.000,315.056 246.000 C 315.177 246.000,315.754 245.667,316.338 245.261 C 316.922 244.855,318.480 243.924,319.800 243.194 C 321.120 242.464,323.145 241.342,324.301 240.702 C 327.021 239.196,326.784 237.345,326.904 261.000 C 326.961 272.220,327.051 227.276,327.104 161.124 C 327.168 81.267,327.066 40.764,326.800 40.600 C 326.580 40.464,326.400 39.733,326.400 38.976 C 326.400 38.219,326.220 37.600,326.000 37.600 C 325.780 37.600,325.600 37.409,325.600 37.177 C 325.600 36.944,325.030 36.044,324.333 35.177 C 323.636 34.310,323.038 33.219,323.004 32.753 C 322.854 30.720,329.102 30.814,194.200 30.827 L 68.600 30.839 66.874 31.676 M124.307 119.881 L 124.413 130.361 123.107 130.597 C 122.388 130.727,117.480 130.781,112.200 130.716 L 102.600 130.600 102.493 119.894 L 102.387 109.187 113.293 109.294 L 124.200 109.400 124.307 119.881 M284.307 119.900 L 284.200 130.600 211.000 130.709 C 170.740 130.770,137.395 130.721,136.900 130.602 L 136.000 130.385 136.000 120.059 C 136.000 114.380,136.120 109.613,136.267 109.467 C 136.413 109.320,169.806 109.200,210.473 109.200 L 284.413 109.200 284.307 119.900 M124.200 162.200 L 124.200 172.600 113.700 172.707 L 103.200 172.813 103.200 162.200 L 103.200 151.587 113.700 151.693 L 124.200 151.800 124.200 162.200 M285.200 162.201 L 285.200 172.802 210.700 172.701 L 136.200 172.600 136.093 162.100 L 135.987 151.600 210.593 151.600 L 285.200 151.600 285.200 162.201 M123.767 193.043 C 124.855 193.460,124.708 213.407,123.613 213.993 C 123.107 214.264,119.356 214.376,113.113 214.307 L 103.400 214.200 103.293 203.500 L 103.187 192.800 113.161 192.800 C 118.646 192.800,123.419 192.909,123.767 193.043 M285.107 203.500 L 285.000 214.200 211.400 214.309 C 170.920 214.370,137.395 214.321,136.900 214.202 L 136.000 213.985 136.000 203.659 C 136.000 197.980,136.120 193.213,136.267 193.067 C 136.413 192.920,169.986 192.800,210.873 192.800 L 285.213 192.800 285.107 203.500 M204.800 245.000 L 204.800 255.600 153.600 255.600 L 102.400 255.600 102.400 245.000 L 102.400 234.400 153.600 234.400 L 204.800 234.400 204.800 245.000 " stroke="none" fill="#fbd464" fill-rule="evenodd"></path><path id="path1" d="M102.493 119.900 L 102.600 130.200 113.000 130.200 L 123.400 130.200 123.507 119.900 L 123.614 109.600 113.000 109.600 L 102.386 109.600 102.493 119.900 M136.800 120.000 L 136.800 130.400 210.400 130.400 L 284.000 130.400 284.000 120.000 L 284.000 109.600 210.400 109.600 L 136.800 109.600 136.800 120.000 M103.200 162.200 L 103.200 172.400 113.400 172.400 L 123.600 172.400 123.600 162.200 L 123.600 152.000 113.400 152.000 L 103.200 152.000 103.200 162.200 M136.800 162.200 L 136.800 172.400 210.800 172.400 L 284.800 172.400 284.800 162.200 L 284.800 152.000 210.800 152.000 L 136.800 152.000 136.800 162.200 M103.293 203.500 L 103.400 213.800 113.400 213.800 L 123.400 213.800 123.507 203.500 L 123.614 193.200 113.400 193.200 L 103.186 193.200 103.293 203.500 M136.800 203.600 L 136.800 214.000 210.800 214.000 L 284.800 214.000 284.800 203.600 L 284.800 193.200 210.800 193.200 L 136.800 193.200 136.800 203.600 M102.400 245.000 L 102.400 255.200 153.400 255.200 L 204.400 255.200 204.400 245.000 L 204.400 234.800 153.400 234.800 L 102.400 234.800 102.400 245.000 " stroke="none" fill="#fcfbef" fill-rule="evenodd"></path><path id="path2" d="M322.800 32.736 C 322.800 32.958,323.430 33.964,324.200 34.973 C 324.970 35.982,325.600 36.985,325.600 37.203 C 325.600 37.422,325.780 37.600,326.000 37.600 C 326.571 37.600,326.511 37.369,325.500 35.677 C 325.005 34.848,324.407 33.827,324.171 33.409 C 323.691 32.555,322.800 32.118,322.800 32.736 M326.428 39.076 C 326.413 39.778,326.580 40.464,326.800 40.600 C 327.280 40.896,327.280 39.716,326.800 38.600 C 326.510 37.926,326.452 38.000,326.428 39.076 M329.852 42.100 C 329.719 42.595,329.608 97.090,329.605 163.201 L 329.600 283.402 291.700 321.300 L 253.800 359.198 162.800 359.299 L 71.800 359.400 71.677 361.100 C 71.604 362.106,71.727 362.800,71.977 362.800 C 72.210 362.800,72.400 363.082,72.400 363.426 C 72.400 364.815,76.500 368.327,78.206 368.398 C 90.816 368.928,327.322 368.705,329.191 368.162 C 332.045 367.333,335.258 364.263,336.059 361.600 C 336.510 360.100,336.600 333.935,336.600 204.749 L 336.600 49.699 334.866 46.387 C 332.965 42.755,332.373 42.000,331.429 42.000 C 331.083 42.000,330.800 41.820,330.800 41.600 C 330.800 40.833,330.091 41.207,329.852 42.100 M327.203 161.400 C 327.096 227.400,326.961 272.220,326.904 261.000 C 326.784 237.345,327.021 239.196,324.301 240.702 C 323.145 241.342,321.120 242.464,319.800 243.194 C 318.480 243.924,316.922 244.855,316.338 245.261 C 315.754 245.667,315.177 246.000,315.056 246.000 C 314.934 246.000,313.882 246.565,312.718 247.256 C 311.553 247.947,309.790 248.966,308.800 249.520 C 307.286 250.367,293.148 258.420,288.900 260.855 C 288.185 261.265,286.970 261.960,286.200 262.400 C 285.430 262.840,284.125 263.587,283.300 264.059 C 282.475 264.531,280.810 265.459,279.600 266.120 C 278.390 266.781,276.922 267.655,276.338 268.061 C 275.754 268.467,275.194 268.800,275.093 268.800 C 274.945 268.800,268.024 272.702,260.100 277.253 C 257.421 278.792,255.957 279.624,254.500 280.435 C 250.780 282.507,248.916 282.400,288.714 282.400 C 314.255 282.400,325.600 282.529,325.600 282.821 C 325.600 283.052,324.025 284.762,322.100 286.620 C 320.175 288.478,318.798 289.998,319.039 289.999 C 319.728 290.001,327.167 282.076,327.405 281.086 C 327.522 280.599,327.569 226.470,327.509 160.800 L 327.399 41.400 327.203 161.400 M309.051 299.635 C 304.020 304.676,300.060 308.798,300.251 308.794 C 300.443 308.791,304.740 304.651,309.799 299.594 C 314.859 294.538,318.819 290.416,318.599 290.435 C 318.380 290.454,314.083 294.594,309.051 299.635 M295.664 313.062 C 293.610 315.152,291.999 316.932,292.085 317.018 C 292.171 317.104,294.028 315.380,296.213 313.187 C 298.398 310.994,300.008 309.214,299.792 309.231 C 299.577 309.249,297.719 310.973,295.664 313.062 M280.070 328.652 C 273.838 334.893,268.888 340.000,269.070 339.999 C 269.501 339.998,291.802 317.662,291.574 317.459 C 291.478 317.374,286.301 322.410,280.070 328.652 M260.442 348.250 C 256.175 352.528,252.187 356.382,251.581 356.813 C 250.495 357.587,249.178 357.600,160.939 357.700 L 71.400 357.802 161.343 357.901 L 251.287 358.000 260.143 349.206 C 265.014 344.370,268.820 340.426,268.600 340.442 C 268.380 340.459,264.709 343.972,260.442 348.250 M65.882 356.842 C 66.123 357.083,67.462 357.339,68.858 357.411 C 72.002 357.572,71.158 356.946,67.803 356.628 C 66.093 356.465,65.564 356.524,65.882 356.842 " stroke="none" fill="#e4c45c" fill-rule="evenodd"></path><path id="path3" d="M324.400 33.608 C 324.400 33.832,324.820 34.687,325.333 35.508 C 325.846 36.329,326.521 37.630,326.833 38.400 C 327.317 39.595,327.415 57.421,327.504 160.373 L 327.608 280.946 326.609 282.373 C 326.059 283.158,308.903 300.495,288.484 320.900 L 251.358 358.000 161.946 358.000 C 96.482 358.000,71.924 357.878,70.257 357.543 C 69.005 357.291,67.870 357.197,67.733 357.333 C 67.332 357.734,68.433 358.800,69.249 358.800 C 69.662 358.800,70.000 358.935,70.000 359.100 C 70.000 359.265,111.355 359.353,161.900 359.296 L 253.800 359.193 291.694 321.303 L 329.589 283.413 329.694 161.206 C 329.752 93.993,329.665 38.940,329.500 38.867 C 329.335 38.793,329.200 38.467,329.200 38.141 C 329.200 37.592,325.134 33.200,324.626 33.200 C 324.502 33.200,324.400 33.384,324.400 33.608 M334.899 46.449 L 336.600 49.699 336.600 204.749 C 336.600 333.935,336.510 360.100,336.059 361.600 C 335.258 364.263,332.045 367.333,329.191 368.162 C 327.126 368.762,83.349 368.955,79.039 368.360 C 77.282 368.118,77.382 368.935,79.231 369.922 L 80.876 370.800 206.626 370.800 L 332.376 370.800 333.842 369.977 C 335.791 368.881,338.290 366.238,339.015 364.503 C 339.923 362.329,339.898 50.812,338.990 48.637 C 338.314 47.019,334.639 43.200,333.758 43.200 C 333.371 43.200,333.724 44.205,334.899 46.449 " stroke="none" fill="#957d3c" fill-rule="evenodd"></path><path id="path4" d="M112.907 109.496 L 123.613 109.613 123.507 119.907 L 123.400 130.200 112.938 130.200 C 107.184 130.200,102.560 130.335,102.662 130.500 C 102.882 130.856,122.191 130.899,123.507 130.546 L 124.413 130.303 124.307 119.852 L 124.200 109.400 113.200 109.390 L 102.200 109.380 112.907 109.496 M136.267 109.467 C 136.120 109.613,136.000 114.380,136.000 120.059 L 136.000 130.385 136.900 130.602 C 137.395 130.721,170.740 130.770,211.000 130.709 L 284.200 130.600 284.307 119.900 L 284.413 109.200 210.473 109.200 C 169.806 109.200,136.413 109.320,136.267 109.467 M284.000 120.000 L 284.000 130.400 210.400 130.400 L 136.800 130.400 136.800 120.000 L 136.800 109.600 210.400 109.600 L 284.000 109.600 284.000 120.000 M113.300 151.896 L 123.600 152.014 123.600 162.200 L 123.600 172.386 113.300 172.504 L 103.000 172.621 113.600 172.610 L 124.200 172.600 124.200 162.200 L 124.200 151.800 113.600 151.790 L 103.000 151.779 113.300 151.896 M136.093 162.100 L 136.200 172.600 210.700 172.701 L 285.200 172.802 285.200 162.201 L 285.200 151.600 210.593 151.600 L 135.987 151.600 136.093 162.100 M284.800 162.200 L 284.800 172.400 210.800 172.400 L 136.800 172.400 136.800 162.200 L 136.800 152.000 210.800 152.000 L 284.800 152.000 284.800 162.200 M113.307 193.100 L 123.613 193.214 123.507 203.507 L 123.400 213.800 113.338 213.800 C 107.804 213.800,103.359 213.935,103.462 214.100 C 103.753 214.571,122.734 214.464,123.626 213.986 C 124.709 213.406,124.843 193.456,123.767 193.043 C 123.419 192.909,118.604 192.842,113.067 192.893 L 103.000 192.986 113.307 193.100 M136.267 193.067 C 136.120 193.213,136.000 197.980,136.000 203.659 L 136.000 213.985 136.900 214.202 C 137.395 214.321,170.920 214.370,211.400 214.309 L 285.000 214.200 285.107 203.500 L 285.213 192.800 210.873 192.800 C 169.986 192.800,136.413 192.920,136.267 193.067 M284.800 203.600 L 284.800 214.000 210.800 214.000 L 136.800 214.000 136.800 203.600 L 136.800 193.200 210.800 193.200 L 284.800 193.200 284.800 203.600 M153.300 234.700 L 204.400 234.803 204.400 245.000 L 204.400 255.197 153.300 255.300 L 102.200 255.403 153.500 255.502 L 204.800 255.600 204.800 245.000 L 204.800 234.400 153.500 234.498 L 102.200 234.597 153.300 234.700 M251.867 283.067 C 251.496 283.438,251.530 356.400,251.901 356.400 C 252.467 356.400,325.233 283.366,324.950 283.083 C 324.590 282.724,252.226 282.707,251.867 283.067 " stroke="none" fill="#fceccb" fill-rule="evenodd"></path></g></svg>